<mxfile host="app.diagrams.net" agent="Mozilla/5.0 (Windows NT 10.0; Win64; x64) AppleWebKit/537.36 (KHTML, like Gecko) Chrome/132.0.0.0 Safari/537.36 Edg/132.0.0.0" version="26.0.7">
  <diagram name="Page-1" id="gFqPRw2_o2-ABjxYX6BA">
    <mxGraphModel dx="976" dy="418" grid="1" gridSize="10" guides="1" tooltips="1" connect="1" arrows="1" fold="1" page="1" pageScale="1" pageWidth="850" pageHeight="1100" math="0" shadow="0">
      <root>
        <mxCell id="0" />
        <mxCell id="1" parent="0" />
        <mxCell id="UF8t-RH_NVsqyQSyzLmf-29" value="&lt;p style=&quot;margin:0px;margin-top:4px;text-align:center;&quot;&gt;&lt;b&gt;Hệ thống&lt;/b&gt;&lt;/p&gt;&lt;hr size=&quot;1&quot; style=&quot;border-style:solid;&quot;&gt;&lt;div style=&quot;height:2px;&quot;&gt;&lt;/div&gt;" style="verticalAlign=top;align=left;overflow=fill;html=1;whiteSpace=wrap;" vertex="1" parent="1">
          <mxGeometry x="260" width="380" height="360" as="geometry" />
        </mxCell>
        <mxCell id="UF8t-RH_NVsqyQSyzLmf-28" value="&lt;p style=&quot;margin:0px;margin-top:4px;text-align:center;&quot;&gt;&lt;b&gt;Người dùng&lt;/b&gt;&lt;/p&gt;&lt;hr size=&quot;1&quot; style=&quot;border-style:solid;&quot;&gt;&lt;div style=&quot;height:2px;&quot;&gt;&lt;/div&gt;" style="verticalAlign=top;align=left;overflow=fill;html=1;whiteSpace=wrap;" vertex="1" parent="1">
          <mxGeometry width="260" height="360" as="geometry" />
        </mxCell>
        <mxCell id="UF8t-RH_NVsqyQSyzLmf-4" value="" style="edgeStyle=orthogonalEdgeStyle;rounded=0;orthogonalLoop=1;jettySize=auto;html=1;strokeColor=light-dark(#FF0500,#FFFFFF);" edge="1" parent="1" source="UF8t-RH_NVsqyQSyzLmf-1" target="UF8t-RH_NVsqyQSyzLmf-3">
          <mxGeometry relative="1" as="geometry" />
        </mxCell>
        <mxCell id="UF8t-RH_NVsqyQSyzLmf-1" value="" style="ellipse;html=1;shape=startState;fillColor=#000000;strokeColor=light-dark(#FF0500,#FFFFFF);" vertex="1" parent="1">
          <mxGeometry x="20" y="45" width="30" height="30" as="geometry" />
        </mxCell>
        <mxCell id="UF8t-RH_NVsqyQSyzLmf-11" value="" style="edgeStyle=orthogonalEdgeStyle;rounded=0;orthogonalLoop=1;jettySize=auto;html=1;strokeColor=light-dark(#FF0500,#FFFFFF);" edge="1" parent="1" source="UF8t-RH_NVsqyQSyzLmf-3" target="UF8t-RH_NVsqyQSyzLmf-5">
          <mxGeometry relative="1" as="geometry" />
        </mxCell>
        <mxCell id="UF8t-RH_NVsqyQSyzLmf-3" value="Thêm suất chiếu" style="rounded=1;whiteSpace=wrap;html=1;arcSize=40;fontColor=#000000;fillColor=#ffffc0;strokeColor=light-dark(#FF0500,#FFFFFF);" vertex="1" parent="1">
          <mxGeometry x="100" y="40" width="120" height="40" as="geometry" />
        </mxCell>
        <mxCell id="UF8t-RH_NVsqyQSyzLmf-12" style="edgeStyle=orthogonalEdgeStyle;rounded=0;orthogonalLoop=1;jettySize=auto;html=1;entryX=0.5;entryY=0;entryDx=0;entryDy=0;strokeColor=light-dark(#FF0500,#FFFFFF);" edge="1" parent="1" source="UF8t-RH_NVsqyQSyzLmf-5" target="UF8t-RH_NVsqyQSyzLmf-6">
          <mxGeometry relative="1" as="geometry">
            <Array as="points">
              <mxPoint x="360" y="100" />
              <mxPoint x="160" y="100" />
            </Array>
          </mxGeometry>
        </mxCell>
        <mxCell id="UF8t-RH_NVsqyQSyzLmf-5" value="Hiển thị biểu mẫu đăng ký" style="rounded=1;whiteSpace=wrap;html=1;arcSize=40;fontColor=#000000;fillColor=#ffffc0;strokeColor=light-dark(#FF0500,#FFFFFF);" vertex="1" parent="1">
          <mxGeometry x="300" y="40" width="120" height="40" as="geometry" />
        </mxCell>
        <mxCell id="UF8t-RH_NVsqyQSyzLmf-13" value="" style="edgeStyle=orthogonalEdgeStyle;rounded=0;orthogonalLoop=1;jettySize=auto;html=1;strokeColor=light-dark(#FF0500,#FFFFFF);" edge="1" parent="1" source="UF8t-RH_NVsqyQSyzLmf-6" target="UF8t-RH_NVsqyQSyzLmf-10">
          <mxGeometry relative="1" as="geometry">
            <Array as="points">
              <mxPoint x="360" y="140" />
            </Array>
          </mxGeometry>
        </mxCell>
        <mxCell id="UF8t-RH_NVsqyQSyzLmf-6" value="Nhập thông tin suất chiếu" style="rounded=1;whiteSpace=wrap;html=1;arcSize=40;fontColor=#000000;fillColor=#ffffc0;strokeColor=light-dark(#FF0500,#FFFFFF);" vertex="1" parent="1">
          <mxGeometry x="100" y="120" width="120" height="40" as="geometry" />
        </mxCell>
        <mxCell id="UF8t-RH_NVsqyQSyzLmf-7" value="STT phòng chiếu&lt;span style=&quot;background-color: transparent; color: light-dark(rgb(0, 0, 0), rgb(255, 255, 255));&quot;&gt;, trạng thái phòng chiếu, ngày giờ thời gian bắt đầu / kết thúc&lt;/span&gt;" style="whiteSpace=wrap;html=1;shape=mxgraph.basic.document;align=center;strokeColor=#000000;" vertex="1" parent="1">
          <mxGeometry x="100" y="200" width="120" height="80" as="geometry" />
        </mxCell>
        <mxCell id="UF8t-RH_NVsqyQSyzLmf-16" value="" style="edgeStyle=orthogonalEdgeStyle;rounded=0;orthogonalLoop=1;jettySize=auto;html=1;strokeColor=light-dark(#FF0500,#FFFFFF);" edge="1" parent="1" source="UF8t-RH_NVsqyQSyzLmf-10" target="UF8t-RH_NVsqyQSyzLmf-14">
          <mxGeometry relative="1" as="geometry" />
        </mxCell>
        <mxCell id="UF8t-RH_NVsqyQSyzLmf-19" value="" style="edgeStyle=orthogonalEdgeStyle;rounded=0;orthogonalLoop=1;jettySize=auto;html=1;strokeColor=light-dark(#FF0500,#FFFFFF);" edge="1" parent="1" source="UF8t-RH_NVsqyQSyzLmf-10" target="UF8t-RH_NVsqyQSyzLmf-18">
          <mxGeometry relative="1" as="geometry" />
        </mxCell>
        <mxCell id="UF8t-RH_NVsqyQSyzLmf-10" value="Xác nhận&lt;br&gt;thêm suất&lt;br&gt;chiếu" style="rhombus;whiteSpace=wrap;html=1;fontColor=#000000;fillColor=#ffffc0;strokeColor=light-dark(#FF0500,#FFFFFF);" vertex="1" parent="1">
          <mxGeometry x="300" y="160" width="120" height="80" as="geometry" />
        </mxCell>
        <mxCell id="UF8t-RH_NVsqyQSyzLmf-17" value="" style="edgeStyle=orthogonalEdgeStyle;rounded=0;orthogonalLoop=1;jettySize=auto;html=1;strokeColor=light-dark(#FF0500,#FFFFFF);" edge="1" parent="1" source="UF8t-RH_NVsqyQSyzLmf-14" target="UF8t-RH_NVsqyQSyzLmf-15">
          <mxGeometry relative="1" as="geometry" />
        </mxCell>
        <mxCell id="UF8t-RH_NVsqyQSyzLmf-14" value="Lưu suất chiếu vào CSDL" style="rounded=1;whiteSpace=wrap;html=1;arcSize=40;fontColor=#000000;fillColor=#ffffc0;strokeColor=light-dark(#FF0500,#FFFFFF);" vertex="1" parent="1">
          <mxGeometry x="300" y="280" width="120" height="40" as="geometry" />
        </mxCell>
        <mxCell id="UF8t-RH_NVsqyQSyzLmf-20" value="" style="edgeStyle=orthogonalEdgeStyle;rounded=0;orthogonalLoop=1;jettySize=auto;html=1;strokeColor=light-dark(#FF0500,#FFFFFF);" edge="1" parent="1" source="UF8t-RH_NVsqyQSyzLmf-15" target="UF8t-RH_NVsqyQSyzLmf-18">
          <mxGeometry relative="1" as="geometry" />
        </mxCell>
        <mxCell id="UF8t-RH_NVsqyQSyzLmf-21" style="edgeStyle=orthogonalEdgeStyle;rounded=0;orthogonalLoop=1;jettySize=auto;html=1;entryX=1;entryY=0.5;entryDx=0;entryDy=0;strokeColor=light-dark(#FF0500,#FFFFFF);" edge="1" parent="1" source="UF8t-RH_NVsqyQSyzLmf-15" target="UF8t-RH_NVsqyQSyzLmf-5">
          <mxGeometry relative="1" as="geometry">
            <Array as="points">
              <mxPoint x="620" y="300" />
              <mxPoint x="620" y="60" />
            </Array>
          </mxGeometry>
        </mxCell>
        <mxCell id="UF8t-RH_NVsqyQSyzLmf-15" value="Thêm suất&lt;br&gt;chiếu khác" style="rhombus;whiteSpace=wrap;html=1;fontColor=#000000;fillColor=#ffffc0;strokeColor=light-dark(#FF0500,#FFFFFF);" vertex="1" parent="1">
          <mxGeometry x="460" y="260" width="120" height="80" as="geometry" />
        </mxCell>
        <mxCell id="UF8t-RH_NVsqyQSyzLmf-18" value="" style="ellipse;html=1;shape=endState;fillColor=#000000;strokeColor=light-dark(#FF0500,#FFFFFF);" vertex="1" parent="1">
          <mxGeometry x="505" y="185" width="30" height="30" as="geometry" />
        </mxCell>
        <mxCell id="UF8t-RH_NVsqyQSyzLmf-22" value="Đúng" style="text;html=1;align=center;verticalAlign=middle;whiteSpace=wrap;rounded=0;fontFamily=Helvetica;fontSize=12;fontColor=#000000;" vertex="1" parent="1">
          <mxGeometry x="350" y="230" width="60" height="30" as="geometry" />
        </mxCell>
        <mxCell id="UF8t-RH_NVsqyQSyzLmf-23" value="Đúng" style="text;html=1;align=center;verticalAlign=middle;whiteSpace=wrap;rounded=0;fontFamily=Helvetica;fontSize=12;fontColor=#000000;" vertex="1" parent="1">
          <mxGeometry x="560" y="270" width="60" height="30" as="geometry" />
        </mxCell>
        <mxCell id="UF8t-RH_NVsqyQSyzLmf-24" value="Sai" style="text;html=1;align=center;verticalAlign=middle;resizable=0;points=[];autosize=1;strokeColor=none;fillColor=none;" vertex="1" parent="1">
          <mxGeometry x="405" y="170" width="40" height="30" as="geometry" />
        </mxCell>
        <mxCell id="UF8t-RH_NVsqyQSyzLmf-25" value="Sai" style="text;html=1;align=center;verticalAlign=middle;resizable=0;points=[];autosize=1;strokeColor=none;fillColor=none;" vertex="1" parent="1">
          <mxGeometry x="480" y="240" width="40" height="30" as="geometry" />
        </mxCell>
        <mxCell id="UF8t-RH_NVsqyQSyzLmf-27" value="" style="endArrow=none;dashed=1;html=1;dashPattern=1 3;strokeWidth=2;rounded=0;entryX=0.5;entryY=1;entryDx=0;entryDy=0;" edge="1" parent="1" target="UF8t-RH_NVsqyQSyzLmf-6">
          <mxGeometry width="50" height="50" relative="1" as="geometry">
            <mxPoint x="160" y="200" as="sourcePoint" />
            <mxPoint x="210" y="150" as="targetPoint" />
          </mxGeometry>
        </mxCell>
      </root>
    </mxGraphModel>
  </diagram>
</mxfile>
